<svg width="214" height="85" viewBox="0 0 214 85" fill="none" xmlns="http://www.w3.org/2000/svg">
<path d="M16.3729 15.541C17.0086 16.0009 17.5564 16.8395 18.0162 18.0568C18.4896 19.2606 18.7534 20.3021 18.8075 21.1812C18.8751 22.0604 18.9157 22.5812 18.9292 22.7435C18.9563 23.1087 18.6722 23.3792 18.0771 23.555L16.9206 23.8999C16.6501 23.9675 16.3661 23.8931 16.0685 23.6767C15.771 23.4468 15.6154 23.1425 15.6019 22.7638C15.3855 20.6402 14.9121 19.1321 14.1817 18.2394C13.8165 18.1041 13.4107 18.0365 12.9644 18.0365C11.6118 17.9689 10.2525 18.9292 8.88638 20.9175C7.52029 22.8922 6.35032 25.5906 5.37647 29.0126C4.10505 33.3544 3.83454 36.9116 4.56492 39.6844C4.97069 41.2263 5.58611 42.0987 6.41118 42.3016C8.44004 42.1258 10.1172 40.6312 11.4427 37.8179C11.4833 37.7367 11.5374 37.6217 11.605 37.4729C11.6862 37.3106 11.7403 37.2092 11.7674 37.1686C11.7944 37.1145 11.835 37.0334 11.8891 36.9252C11.9567 36.8034 12.0041 36.7358 12.0311 36.7223C12.0582 36.6952 12.0987 36.6479 12.1528 36.5803C12.2069 36.5126 12.2543 36.4788 12.2949 36.4788C12.349 36.4788 12.4031 36.472 12.4572 36.4585C12.5248 36.4315 12.5924 36.4315 12.6601 36.4585C12.7412 36.4856 12.8291 36.5126 12.9238 36.5397C13.0185 36.5532 13.1199 36.587 13.2281 36.6411L14.5469 37.1889C14.8039 37.2836 14.9324 37.5 14.9324 37.8381C14.9459 38.1628 14.858 38.5009 14.6686 38.8526C13.3702 41.206 12.1055 42.8765 10.8747 43.8638C9.64382 44.8377 8.11542 45.3246 6.28945 45.3246C5.45086 45.3246 4.56492 45.0338 3.63165 44.4522C2.1303 43.5325 1.23084 41.5509 0.933273 38.5077C0.649234 35.4509 0.994139 32.0086 1.96799 28.1808C2.59017 25.6515 3.49639 23.3589 4.68665 21.303C5.87692 19.2335 7.25654 17.5969 8.82552 16.3931C10.408 15.1894 12.0108 14.5875 13.6339 14.5875C13.972 14.5875 14.4252 14.6821 14.9932 14.8715C15.5748 15.0609 16.0347 15.284 16.3729 15.541ZM21.5141 36.56C24.3274 35.3427 26.2413 33.6925 27.2558 31.6096C27.7697 30.541 28.0267 29.4928 28.0267 28.4648C28.0267 27.4369 27.7292 26.9229 27.134 26.9229C25.8356 26.9229 24.7129 27.9373 23.7661 29.9662C22.8329 31.995 22.0822 34.193 21.5141 36.56ZM20.9866 39.2989C20.7837 40.4621 20.7972 41.2804 21.0272 41.7538C21.2571 42.2137 21.6223 42.5045 22.1228 42.6262C23.1507 42.2475 24.4086 41.2128 25.8964 39.5221C26.1534 39.2651 26.4307 39.2381 26.7283 39.4409L27.5195 39.9279C27.6818 40.0225 27.7968 40.1713 27.8644 40.3742C27.9456 40.5636 27.9523 40.7191 27.8847 40.8408C27.3707 41.8417 26.3969 42.9103 24.9632 44.0464C23.543 45.1691 22.4 45.6425 21.5344 45.4666C19.5732 44.9932 18.4235 43.9653 18.0853 42.3828C17.8284 41.1249 17.8757 39.4409 18.2274 37.3309C18.5926 35.2209 19.2621 33.0433 20.2359 30.798C21.6561 27.5113 23.2995 25.4351 25.166 24.5694C26.6403 23.8796 27.9862 23.8052 29.2035 24.3463C30.4343 24.8873 31.0497 26.2331 31.0497 28.3837C31.0497 29.628 30.7454 30.8521 30.1367 32.0559C29.0412 34.2065 27.107 36.0933 24.3342 37.7164C23.2522 38.3521 22.1363 38.8796 20.9866 39.2989ZM41.0717 14.4252C41.0717 14.4252 38.5492 24.3124 33.5041 44.087C33.3418 44.6957 32.9293 45 32.2665 45H31.5564C31.056 45 30.7111 44.8783 30.5217 44.6348C30.3188 44.3778 30.2647 44.0532 30.3594 43.661L37.9473 14.3846C38.1096 13.7759 38.5289 13.4716 39.2052 13.4716H40.1588C40.9162 13.4716 41.2205 13.7894 41.0717 14.4252ZM45.4754 40.638C47.3826 37.6353 48.3835 34.3215 48.4781 30.6966C48.5187 29.0735 48.4308 27.9847 48.2144 27.4301C48.0115 26.8756 47.599 26.5915 46.9768 26.578C46.3546 26.5509 45.7865 26.8417 45.2725 27.4504C44.7721 28.0455 44.2852 28.8368 43.8118 29.8242C42.5539 32.4211 41.8776 35.3359 41.7829 38.5685C41.7288 41.0708 42.1616 42.3557 43.0814 42.4234C43.8929 42.4504 44.6909 41.8553 45.4754 40.638ZM38.415 38.9743C38.5503 35.2412 39.3212 32.0289 40.7279 29.3372C41.3366 28.147 41.837 27.2881 42.2293 26.7606C42.6215 26.2196 43.0949 25.6853 43.6495 25.1578C44.7991 24.0622 46.1855 23.528 47.8086 23.555C49.2018 23.6226 50.2838 24.3192 51.0548 25.6447C51.6229 26.5509 51.8663 28.0658 51.7852 30.1894C51.7175 32.2994 51.3591 34.3688 50.7099 36.3977C50.0742 38.413 49.3573 40.0969 48.5593 41.4495C46.9633 44.1141 44.9276 45.4058 42.4524 45.3246C41.5462 45.284 40.7279 44.8986 39.9975 44.1682C39.5106 43.7083 39.1116 43.032 38.8005 42.1393C38.5029 41.2331 38.3744 40.1781 38.415 38.9743ZM62.5914 17.4887C62.5914 17.4887 62.0436 19.6258 60.948 23.8999H63.1392C63.4503 23.8999 63.6532 23.9675 63.7478 24.1028C63.8425 24.2381 63.8425 24.4748 63.7478 24.8129L63.4638 25.8882C63.288 26.4968 62.9295 26.8012 62.3885 26.8012H60.2176L55.815 44.087C55.6527 44.6957 55.2402 45 54.5774 45H53.7862C53.3398 45 53.022 44.8715 52.8326 44.6145C52.6568 44.3575 52.6094 44.0397 52.6906 43.661L56.9918 26.8012H55.3687C55.0846 26.8012 54.8953 26.7335 54.8006 26.5983C54.7194 26.4495 54.7262 26.1858 54.8209 25.807L55.1455 24.6912C55.2943 24.1637 55.5986 23.8999 56.0585 23.8999H57.7424L59.3858 17.4482C59.5481 16.8395 59.9674 16.5352 60.6437 16.5352H61.6784C62.4359 16.5352 62.7402 16.853 62.5914 17.4887ZM65.3276 36.56C68.1409 35.3427 70.0548 33.6925 71.0692 31.6096C71.5832 30.541 71.8402 29.4928 71.8402 28.4648C71.8402 27.4369 71.5426 26.9229 70.9475 26.9229C69.649 26.9229 68.5264 27.9373 67.5796 29.9662C66.6463 31.995 65.8957 34.193 65.3276 36.56ZM64.8001 39.2989C64.5972 40.4621 64.6107 41.2804 64.8407 41.7538C65.0706 42.2137 65.4358 42.5045 65.9362 42.6262C66.9642 42.2475 68.2221 41.2128 69.7099 39.5221C69.9669 39.2651 70.2442 39.2381 70.5417 39.4409L71.333 39.9279C71.4953 40.0225 71.6103 40.1713 71.6779 40.3742C71.759 40.5636 71.7658 40.7191 71.6982 40.8408C71.1842 41.8417 70.2104 42.9103 68.7766 44.0464C67.3564 45.1691 66.2135 45.6425 65.3479 45.4666C63.3866 44.9932 62.237 43.9653 61.8988 42.3828C61.6418 41.1249 61.6892 39.4409 62.0408 37.3309C62.406 35.2209 63.0756 33.0433 64.0494 30.798C65.4696 27.5113 67.113 25.4351 68.9795 24.5694C70.4538 23.8796 71.7996 23.8052 73.0169 24.3463C74.2478 24.8873 74.8632 26.2331 74.8632 28.3837C74.8632 29.628 74.5589 30.8521 73.9502 32.0559C72.8546 34.2065 70.9205 36.0933 68.1477 37.7164C67.0656 38.3521 65.9498 38.8796 64.8001 39.2989ZM76.1206 45H75.6134C75.1129 45 74.7612 44.8783 74.5584 44.6348C74.369 44.3778 74.3217 44.0532 74.4163 43.661L82.0245 14.3846C82.1868 13.7759 82.5994 13.4716 83.2621 13.4716H84.2157C84.9731 13.4716 85.2775 13.7894 85.1287 14.4252L79.9754 34.6934L83.7694 28.4243C84.6621 26.9229 85.5953 25.7935 86.5692 25.0361C87.5566 24.2786 88.3951 23.8999 89.085 23.8999H89.9574C91.1341 23.8999 91.6887 24.468 91.621 25.6041C91.594 26.064 91.5061 26.6862 91.3573 27.4707L86.7112 44.4116C86.63 44.8039 86.4069 45 86.0417 45H83.8911C83.7423 45 83.6206 44.9188 83.5259 44.7565C83.4447 44.5942 83.4515 44.344 83.5462 44.0059L87.9285 29.743C88.1314 29.0126 88.2328 28.5257 88.2328 28.2822C88.2328 28.0388 88.1382 27.917 87.9488 27.917C87.7594 27.917 87.5295 28.0455 87.259 28.3025C87.002 28.5595 86.6436 29.0126 86.1837 29.6619C85.6291 30.4869 84.9123 31.6096 84.0331 33.0298C83.1675 34.4364 81.9299 36.4179 80.3203 38.9743C78.7107 41.5307 77.7369 43.0929 77.3988 43.661C77.0606 44.229 76.8712 44.5469 76.8307 44.6145C76.7901 44.6686 76.7495 44.716 76.7089 44.7565C76.6684 44.7971 76.6278 44.8309 76.5872 44.858C76.5466 44.885 76.5061 44.9053 76.4655 44.9188C76.3708 44.9729 76.2558 45 76.1206 45Z" fill="black"/>
<path d="M1.31787 49.7881H19.9507C23.0562 49.7881 25.4365 50.5571 27.0918 52.0952C28.7617 53.6333 29.5967 55.5376 29.5967 57.8081C29.5967 59.7124 29.0034 61.3457 27.8169 62.708C27.0259 63.6162 25.8687 64.334 24.3452 64.8613C26.6597 65.418 28.3589 66.3774 29.4429 67.7397C30.5415 69.0874 31.0908 70.7866 31.0908 72.8374C31.0908 74.5073 30.7026 76.0088 29.9263 77.3418C29.1499 78.6748 28.0879 79.7295 26.7402 80.5059C25.9053 80.9893 24.6455 81.3408 22.9609 81.5605C20.7197 81.8535 19.2329 82 18.5005 82H1.31787V49.7881ZM11.3594 62.4224H15.688C17.2407 62.4224 18.3174 62.1587 18.918 61.6313C19.5332 61.0894 19.8408 60.313 19.8408 59.3022C19.8408 58.3647 19.5332 57.6323 18.918 57.105C18.3174 56.5776 17.2627 56.314 15.7539 56.314H11.3594V62.4224ZM11.3594 75.0786H16.4351C18.1489 75.0786 19.3574 74.7783 20.0605 74.1777C20.7637 73.5625 21.1152 72.7422 21.1152 71.7168C21.1152 70.7646 20.7637 70.0029 20.0605 69.4316C19.3721 68.8457 18.1562 68.5527 16.4131 68.5527H11.3594V75.0786Z" fill="#C34C4F"/>
<path d="M56.1396 79.6826H44.8018L43.2417 85H33.0684L45.1753 52.7881H56.0298L68.1367 85H57.7217L56.1396 79.6826ZM54.0522 72.7173L50.4927 61.1377L46.9551 72.7173H54.0522Z" fill="#C34C4F"/>
<path d="M73.3887 51.7881H83.3423V63.0601H94.2188V51.7881H104.216V84H94.2188V70.9702H83.3423V84H73.3887V51.7881Z" fill="#C34C4F"/>
<path d="M133.649 76.6826H122.312L120.751 82H110.578L122.685 49.7881H133.54L145.646 82H135.231L133.649 76.6826ZM131.562 69.7173L128.002 58.1377L124.465 69.7173H131.562Z" fill="#C34C4F"/>
<path d="M146.119 73.3433L155.589 72.75C155.794 74.2881 156.211 75.46 156.841 76.2656C157.867 77.5693 159.332 78.2212 161.236 78.2212C162.657 78.2212 163.748 77.8916 164.51 77.2324C165.286 76.5586 165.674 75.7822 165.674 74.9033C165.674 74.0684 165.308 73.3213 164.576 72.6621C163.843 72.0029 162.144 71.3804 159.478 70.7944C155.113 69.813 152 68.5093 150.14 66.8833C148.265 65.2573 147.327 63.1846 147.327 60.665C147.327 59.0098 147.803 57.4497 148.755 55.9849C149.722 54.5054 151.165 53.3481 153.084 52.5132C155.018 51.6636 157.662 51.2388 161.016 51.2388C165.132 51.2388 168.267 52.0078 170.42 53.5459C172.588 55.0693 173.877 57.501 174.288 60.8408L164.905 61.3901C164.656 59.9399 164.129 58.8853 163.323 58.2261C162.532 57.5669 161.434 57.2373 160.027 57.2373C158.87 57.2373 157.999 57.4863 157.413 57.9844C156.827 58.4678 156.534 59.061 156.534 59.7642C156.534 60.2769 156.775 60.7383 157.259 61.1484C157.728 61.5732 158.841 61.9688 160.599 62.335C164.949 63.2725 168.062 64.2246 169.937 65.1914C171.827 66.1436 173.196 67.3301 174.046 68.751C174.91 70.1719 175.342 71.7612 175.342 73.519C175.342 75.5845 174.771 77.4888 173.628 79.2319C172.486 80.9751 170.889 82.3008 168.838 83.209C166.788 84.1025 164.202 84.5493 161.082 84.5493C155.604 84.5493 151.81 83.4946 149.7 81.3853C147.591 79.2759 146.397 76.5952 146.119 73.3433Z" fill="#C34C4F"/>
<path d="M201.503 78.6826H190.165L188.605 84H178.432L190.539 51.7881H201.393L213.5 84H203.085L201.503 78.6826ZM199.416 71.7173L195.856 60.1377L192.318 71.7173H199.416Z" fill="#C34C4F"/>
</svg>
