
<svg width="361" height="361" viewBox="0 0 361 361" fill="none" xmlns="http://www.w3.org/2000/svg">
<path d="M158.584 10.4684C165.074 15.517 170.665 24.7232 175.359 38.0872C180.192 51.3026 182.884 62.7361 183.436 72.3878C184.127 82.0396 184.541 87.7563 184.679 89.5382C184.955 93.5474 182.056 96.5171 175.981 98.4475L164.176 102.234C161.415 102.976 158.515 102.16 155.478 99.7839C152.441 97.2596 150.853 93.9186 150.715 89.7609C148.506 66.4483 143.673 49.8919 136.218 40.0917C132.49 38.6069 128.348 37.8644 123.792 37.8644C109.985 37.122 96.1096 47.6646 82.1649 69.4923C68.2202 91.1716 56.2775 120.795 46.3368 158.362C33.3585 206.027 30.5972 245.079 38.0528 275.519C42.1948 292.447 48.4768 302.024 56.8988 304.252C77.6087 302.321 94.7289 285.913 108.259 255.028C108.674 254.137 109.226 252.875 109.916 251.241C110.745 249.46 111.297 248.346 111.573 247.901C111.849 247.307 112.263 246.416 112.816 245.228C113.506 243.891 113.989 243.149 114.265 243C114.541 242.703 114.956 242.184 115.508 241.441C116.06 240.699 116.543 240.328 116.958 240.328C117.51 240.328 118.062 240.253 118.614 240.105C119.305 239.808 119.995 239.808 120.685 240.105C121.514 240.402 122.411 240.699 123.378 240.996C124.344 241.144 125.38 241.516 126.484 242.109L139.946 248.123C142.569 249.163 143.88 251.538 143.88 255.251C144.018 258.814 143.121 262.527 141.188 266.387C127.934 292.224 115.025 310.562 102.461 321.402C89.8966 332.093 74.2951 337.439 55.6562 337.439C47.0961 337.439 38.0528 334.246 28.5262 327.861C13.2009 317.764 4.0195 296.011 0.98205 262.601C-1.91734 229.043 1.60335 191.252 11.5441 149.23C17.8951 121.463 27.1456 96.2944 39.2954 73.7243C51.4452 51.0056 65.5279 33.0386 81.5436 19.8231C97.6973 6.60772 114.058 0 130.626 0C134.078 0 138.703 1.03942 144.502 3.11825C150.439 5.19709 155.133 7.64714 158.584 10.4684Z" fill="black"/>
<path d="M157.334 124.706H284.795C306.038 124.706 322.321 130.347 333.644 141.63C345.068 152.913 350.779 166.882 350.779 183.537C350.779 197.507 346.721 209.488 338.604 219.481C333.193 226.144 325.277 231.409 314.856 235.277C330.688 239.361 342.312 246.399 349.727 256.392C357.242 266.278 361 278.743 361 293.787C361 306.037 358.345 317.051 353.034 326.829C347.723 336.608 340.458 344.345 331.239 350.04C325.528 353.586 316.91 356.165 305.387 357.776C290.055 359.926 279.885 361 274.874 361H157.334V124.706ZM226.025 217.386H255.635C266.257 217.386 273.622 215.452 277.73 211.583C281.939 207.607 284.043 201.912 284.043 194.498C284.043 187.621 281.939 182.248 277.73 178.38C273.622 174.511 266.407 172.577 256.086 172.577H226.025V217.386ZM226.025 310.227H260.746C272.469 310.227 280.736 308.025 285.546 303.619C290.356 299.106 292.761 293.088 292.761 285.566C292.761 278.582 290.356 272.994 285.546 268.803C280.837 264.505 272.52 262.356 260.595 262.356H226.025V310.227Z" fill="#C34C4F"/>
</svg>
