<svg width="512" height="512" viewBox="0 0 512 512" fill="none" xmlns="http://www.w3.org/2000/svg">
<path d="M225.646 21.4992C234.634 28.4917 242.378 41.2427 248.88 59.7523C255.573 78.0562 259.302 93.8921 260.067 107.26C261.023 120.628 261.597 128.546 261.788 131.014C262.17 136.567 258.155 140.68 249.741 143.354L233.391 148.598C229.566 149.626 225.55 148.495 221.343 145.205C217.136 141.709 214.937 137.081 214.746 131.323C211.686 99.0337 204.993 76.1024 194.667 62.5287C189.504 60.4721 183.767 59.4438 177.457 59.4438C158.334 58.4155 139.116 73.0175 119.802 103.25C100.488 133.276 83.9467 174.306 70.1783 226.338C52.203 292.356 48.3784 346.445 58.7047 388.605C64.4415 412.051 73.1423 425.316 84.8072 428.401C113.491 425.727 137.203 403.002 155.944 360.224C156.517 358.99 157.282 357.242 158.238 354.98C159.386 352.512 160.151 350.969 160.533 350.352C160.916 349.53 161.489 348.296 162.254 346.65C163.21 344.8 163.88 343.771 164.262 343.566C164.645 343.154 165.218 342.434 165.983 341.406C166.748 340.378 167.417 339.864 167.991 339.864C168.756 339.864 169.521 339.761 170.286 339.555C171.242 339.144 172.198 339.144 173.154 339.555C174.302 339.966 175.544 340.378 176.883 340.789C178.222 340.995 179.656 341.509 181.186 342.332L199.83 350.661C203.464 352.101 205.28 355.391 205.28 360.533C205.472 365.469 204.229 370.61 201.551 375.957C183.194 411.742 165.314 437.142 147.912 452.155C130.51 466.963 108.902 474.366 83.0861 474.366C71.2301 474.366 58.7047 469.945 45.51 461.101C24.2838 447.116 11.5672 416.987 7.36018 370.713C3.34441 324.233 8.2207 271.892 21.9891 213.69C30.7855 175.231 43.5977 140.372 60.4257 109.111C77.2537 77.6449 96.7589 52.7598 118.941 34.4559C141.315 16.152 163.975 7 186.922 7C191.703 7 198.109 8.43964 206.141 11.3189C214.364 14.1982 220.865 17.5916 225.646 21.4992Z" fill="black"/>
<path d="M223.915 179.722H400.452C429.875 179.722 452.428 187.536 468.111 203.163C483.933 218.79 491.844 238.138 491.844 261.207C491.844 280.555 486.223 297.149 474.981 310.991C467.486 320.218 456.522 327.511 442.088 332.869C464.017 338.524 480.116 348.273 490.386 362.114C500.795 375.806 506 393.07 506 413.907C506 430.873 502.322 446.128 494.966 459.672C487.611 473.216 477.548 483.931 464.78 491.819C456.869 496.731 444.933 500.303 428.973 502.535C407.738 505.512 393.652 507 386.712 507H223.915V179.722ZM319.053 308.088H360.065C374.776 308.088 384.977 305.41 390.668 300.052C396.497 294.545 399.411 286.657 399.411 276.388C399.411 266.862 396.497 259.421 390.668 254.063C384.977 248.705 374.985 246.026 360.69 246.026H319.053V308.088ZM319.053 436.678H367.143C383.381 436.678 394.831 433.627 401.493 427.525C408.155 421.274 411.486 412.939 411.486 402.521C411.486 392.847 408.155 385.108 401.493 379.304C394.97 373.35 383.451 370.374 366.935 370.374H319.053V436.678Z" fill="#C34C4F"/>
</svg>
