<svg width="512" height="512" viewBox="0 0 512 512" fill="none" xmlns="http://www.w3.org/2000/svg">
<circle cx="256" cy="256" r="256" fill="white"/>
<path d="M233.584 85.4684C240.074 90.517 245.665 99.7232 250.359 113.087C255.192 126.303 257.884 137.736 258.436 147.388C259.127 157.04 259.541 162.756 259.679 164.538C259.955 168.547 257.056 171.517 250.981 173.447L239.176 177.234C236.415 177.976 233.515 177.16 230.478 174.784C227.441 172.26 225.853 168.919 225.715 164.761C223.506 141.448 218.673 124.892 211.218 115.092C207.49 113.607 203.348 112.864 198.792 112.864C184.985 112.122 171.11 122.665 157.165 144.492C143.22 166.172 131.278 195.795 121.337 233.362C108.359 281.027 105.597 320.079 113.053 350.519C117.195 367.447 123.477 377.024 131.899 379.252C152.609 377.321 169.729 360.913 183.259 330.028C183.674 329.137 184.226 327.875 184.916 326.241C185.745 324.46 186.297 323.346 186.573 322.901C186.849 322.307 187.263 321.416 187.816 320.228C188.506 318.891 188.989 318.149 189.265 318C189.541 317.703 189.956 317.184 190.508 316.441C191.06 315.699 191.543 315.328 191.958 315.328C192.51 315.328 193.062 315.253 193.614 315.105C194.305 314.808 194.995 314.808 195.685 315.105C196.514 315.402 197.411 315.699 198.378 315.996C199.344 316.144 200.38 316.516 201.484 317.109L214.946 323.123C217.569 324.163 218.88 326.538 218.88 330.251C219.018 333.814 218.121 337.527 216.188 341.387C202.934 367.224 190.025 385.562 177.461 396.402C164.897 407.093 149.295 412.439 130.656 412.439C122.096 412.439 113.053 409.246 103.526 402.861C88.2009 392.764 79.0195 371.011 75.9821 337.601C73.0827 304.043 76.6033 266.252 86.5441 224.23C92.8951 196.463 102.146 171.294 114.295 148.724C126.445 126.006 140.528 108.039 156.544 94.8231C172.697 81.6077 189.058 75 205.626 75C209.078 75 213.703 76.0394 219.502 78.1183C225.439 80.1971 230.133 82.6471 233.584 85.4684Z" fill="black"/>
<path d="M232.334 199.706H359.795C381.038 199.706 397.321 205.347 408.644 216.63C420.068 227.913 425.779 241.882 425.779 258.537C425.779 272.507 421.721 284.488 413.604 294.481C408.193 301.144 400.277 306.409 389.856 310.277C405.688 314.361 417.312 321.399 424.727 331.392C432.242 341.278 436 353.743 436 368.787C436 381.037 433.345 392.051 428.034 401.829C422.723 411.608 415.458 419.345 406.239 425.04C400.528 428.586 391.91 431.165 380.387 432.776C365.055 434.926 354.885 436 349.874 436H232.334V199.706ZM301.025 292.386H330.635C341.257 292.386 348.622 290.452 352.73 286.583C356.939 282.607 359.043 276.912 359.043 269.498C359.043 262.621 356.939 257.248 352.73 253.38C348.622 249.511 341.407 247.577 331.086 247.577H301.025V292.386ZM301.025 385.227H335.746C347.469 385.227 355.736 383.025 360.546 378.619C365.356 374.106 367.761 368.088 367.761 360.566C367.761 353.582 365.356 347.994 360.546 343.803C355.837 339.505 347.52 337.356 335.595 337.356H301.025V385.227Z" fill="#C34C4F"/>
</svg>
